<svg width="31" height="30" viewBox="0 0 31 30" fill="none" xmlns="http://www.w3.org/2000/svg">
<g id="bell">
<path id="Vector" d="M22.8823 10C22.8823 8.01088 22.0922 6.10322 20.6856 4.6967C19.2791 3.29018 17.3714 2.5 15.3823 2.5C13.3932 2.5 11.4855 3.29018 10.079 4.6967C8.6725 6.10322 7.88232 8.01088 7.88232 10C7.88232 18.75 4.13232 21.25 4.13232 21.25H26.6323C26.6323 21.25 22.8823 18.75 22.8823 10Z" stroke="#757575" stroke-width="1.83246" stroke-linecap="round" stroke-linejoin="round"/>
<path id="Vector_2" d="M17.5452 26.251C17.3255 26.6298 17.01 26.9443 16.6305 27.1629C16.251 27.3815 15.8207 27.4965 15.3827 27.4965C14.9447 27.4965 14.5145 27.3815 14.1349 27.1629C13.7554 26.9443 13.44 26.6298 13.2202 26.251" stroke="#757575" stroke-width="1.83246" stroke-linecap="round" stroke-linejoin="round"/>
</g>
</svg>
