<svg width="21" height="20" viewBox="0 0 21 20" fill="none" xmlns="http://www.w3.org/2000/svg">
<g id="instagram">
<path id="Vector" d="M14.2984 1.65137H6.04153C3.76145 1.65137 1.91309 3.49973 1.91309 5.77981V14.0367C1.91309 16.3168 3.76145 18.1651 6.04153 18.1651H14.2984C16.5785 18.1651 18.4268 16.3168 18.4268 14.0367V5.77981C18.4268 3.49973 16.5785 1.65137 14.2984 1.65137Z" stroke="#565656" stroke-width="1.65138" stroke-linecap="round" stroke-linejoin="round"/>
<path id="Vector_2" d="M13.4726 9.38763C13.5745 10.0748 13.4571 10.7766 13.1372 11.3932C12.8172 12.0099 12.311 12.5099 11.6905 12.8222C11.07 13.1346 10.3667 13.2433 9.68088 13.1329C8.99501 13.0225 8.36141 12.6987 7.87019 12.2075C7.37897 11.7163 7.05515 11.0827 6.94478 10.3968C6.83442 9.71093 6.94313 9.00773 7.25545 8.38721C7.56778 7.76669 8.06782 7.26045 8.68444 6.94049C9.30106 6.62054 10.0029 6.50316 10.69 6.60506C11.391 6.70901 12.0399 7.03563 12.541 7.53669C13.042 8.03776 13.3687 8.68669 13.4726 9.38763Z" stroke="#565656" stroke-width="1.65138" stroke-linecap="round" stroke-linejoin="round"/>
<path id="Vector_3" d="M14.7109 5.3667H14.7189" stroke="#565656" stroke-width="1.65138" stroke-linecap="round" stroke-linejoin="round"/>
</g>
</svg>
