<svg width="31" height="31" viewBox="0 0 31 31" fill="none" xmlns="http://www.w3.org/2000/svg">
<g id="map-pin">
<path id="Vector" d="M26.8388 12.5981C26.8388 21.4168 15.5005 28.9757 15.5005 28.9757C15.5005 28.9757 4.16211 21.4168 4.16211 12.5981C4.16211 9.591 5.35668 6.70705 7.48304 4.58069C9.60939 2.45434 12.4933 1.25977 15.5005 1.25977C18.5076 1.25977 21.3915 2.45434 23.5179 4.58069C25.6442 6.70705 26.8388 9.591 26.8388 12.5981Z" stroke="#757575" stroke-width="1.83246" stroke-linecap="round" stroke-linejoin="round"/>
<path id="Vector_2" d="M15.5002 16.3777C17.5875 16.3777 19.2796 14.6856 19.2796 12.5983C19.2796 10.511 17.5875 8.81885 15.5002 8.81885C13.4128 8.81885 11.7207 10.511 11.7207 12.5983C11.7207 14.6856 13.4128 16.3777 15.5002 16.3777Z" stroke="#757575" stroke-width="1.83246" stroke-linecap="round" stroke-linejoin="round"/>
</g>
</svg>
