<svg width="21" height="20" viewBox="0 0 21 20" fill="none" xmlns="http://www.w3.org/2000/svg">
<g id="twitter" clip-path="url(#clip0_10_83)">
<path id="Vector" d="M19.9127 2.47656C19.122 3.0343 18.2465 3.46088 17.32 3.73987C16.8228 3.16809 16.1619 2.76282 15.4268 2.57889C14.6917 2.39495 13.9178 2.44122 13.2098 2.71143C12.5019 2.98165 11.894 3.46277 11.4684 4.08973C11.0428 4.71668 10.82 5.45923 10.8301 6.21693V7.04262C9.37909 7.08024 7.94127 6.75843 6.64472 6.10583C5.34817 5.45324 4.23314 4.49012 3.39893 3.30225C3.39893 3.30225 0.0961823 10.7334 7.52738 14.0362C5.82689 15.1905 3.80117 15.7693 1.74756 15.6876C9.17875 19.816 18.2613 15.6876 18.2613 6.19216C18.2606 5.96217 18.2384 5.73274 18.1953 5.50684C19.038 4.67578 19.6326 3.62651 19.9127 2.47656Z" stroke="#565656" stroke-width="1.65138" stroke-linecap="round" stroke-linejoin="round"/>
</g>
<defs>
<clipPath id="clip0_10_83">
<rect width="19.8165" height="19.8165" fill="white" transform="translate(0.921875)"/>
</clipPath>
</defs>
</svg>
